<svg width="28" height="28" viewBox="0 0 28 28" fill="none" xmlns="http://www.w3.org/2000/svg">
<g clip-path="url(#clip0_454_25035)">
<path d="M27.9999 14C27.9999 16.7689 27.1788 19.4757 25.6405 21.778C24.1021 24.0803 21.9156 25.8747 19.3575 26.9343C16.7993 27.9939 13.9844 28.2712 11.2686 27.731C8.55289 27.1908 6.05832 25.8574 4.10039 23.8995C2.14245 21.9416 0.809083 19.447 0.26889 16.7313C-0.271303 14.0155 0.00594385 11.2006 1.06557 8.64243C2.1252 6.08427 3.91961 3.89777 6.2219 2.35943C8.52419 0.821086 11.2309 0 13.9999 0C17.7129 0 21.2739 1.475 23.8994 4.1005C26.5249 6.72601 27.9999 10.287 27.9999 14Z" fill="#F7931A"/>
<path fill-rule="evenodd" clip-rule="evenodd" d="M9.95022 6.39295L13.1677 7.25458L13.8868 4.57422L15.4955 5.01076L14.8044 7.5804L16.1166 7.93295L16.8089 5.33531L18.4457 5.77313L17.7406 8.38476C17.7406 8.38476 20.4133 8.97658 21.042 11.1504C21.6708 13.3242 19.6599 14.4659 19.0388 14.5091C19.0388 14.5091 21.3806 15.7933 20.5762 18.3197C19.7719 20.846 17.3028 21.2979 14.7051 20.7188L14 23.4271L12.3633 22.9893L13.0824 20.3229L11.7842 19.9691L11.0651 22.6546L9.44113 22.218L10.1615 19.5453L6.85876 18.6544L7.69113 16.8064C7.69113 16.8064 8.62276 17.0609 8.97531 17.1449C9.32786 17.2289 9.5544 16.8624 9.65367 16.4959C9.75295 16.1293 11.2484 10.0546 11.3897 9.5544C11.5309 9.05422 11.4737 8.66349 10.8806 8.50949C10.2875 8.35549 9.48058 8.11495 9.48058 8.11495L9.95022 6.39295ZM13.1957 14.4379L12.3048 17.9799C12.3048 17.9799 16.7224 19.5746 17.2875 17.3308C17.8526 15.0869 13.1957 14.4379 13.1957 14.4379ZM13.6055 12.7579L14.4799 9.5124C14.4799 9.5124 18.2624 10.1895 17.7966 11.9955C17.3308 13.8015 15.1009 13.1091 13.6055 12.7579Z" fill="white"/>
</g>
<defs>
<clipPath id="clip0_454_25035">
<rect width="28" height="28" rx="14" fill="white"/>
</clipPath>
</defs>
</svg>
