<svg width="36" height="36" viewBox="0 0 36 36" fill="none" xmlns="http://www.w3.org/2000/svg">
<path fill-rule="evenodd" clip-rule="evenodd" d="M17.9527 30.0933C26.5045 30.0933 33.4371 23.1607 33.4371 14.6089C33.4371 11.0592 32.2426 7.78846 30.2337 5.17671L26.0592 9.32076C27.0528 10.8408 27.6304 12.6574 27.6304 14.6089C27.6304 19.9537 23.2975 24.2866 17.9527 24.2866C12.6078 24.2866 8.27491 19.9537 8.27491 14.6089C8.27491 12.5761 8.90164 10.6897 9.97241 9.13237L5.80958 4.99993C3.71752 7.64016 2.46826 10.9786 2.46826 14.6089C2.46826 23.1607 9.40086 30.0933 17.9527 30.0933Z" fill="url(#paint0_linear_3394_7428)"/>
<path fill-rule="evenodd" clip-rule="evenodd" d="M17.9526 22.4495C22.2623 22.4495 25.756 18.9558 25.756 14.646C25.756 13.2302 25.379 11.9025 24.7198 10.7578L22.5226 12.9389C22.7212 13.4702 22.8297 14.0455 22.8297 14.646C22.8297 17.3396 20.6462 19.5232 17.9526 19.5232C15.259 19.5232 13.0755 17.3396 13.0755 14.646C13.0755 14.0022 13.2002 13.3875 13.4269 12.8248L11.2439 10.6578C10.5486 11.8249 10.1492 13.1888 10.1492 14.646C10.1492 18.9558 13.6429 22.4495 17.9526 22.4495Z" fill="url(#paint1_linear_3394_7428)"/>
<circle cx="17.9936" cy="15.35" r="1.72502" fill="url(#paint2_linear_3394_7428)"/>
<defs>
<linearGradient id="paint0_linear_3394_7428" x1="33.4371" y1="30.0933" x2="2.17378" y2="29.7209" gradientUnits="userSpaceOnUse">
<stop stop-color="#1AF7A9"/>
<stop offset="1" stop-color="#08CDDA"/>
</linearGradient>
<linearGradient id="paint1_linear_3394_7428" x1="25.756" y1="22.4495" x2="10.0011" y2="22.2482" gradientUnits="userSpaceOnUse">
<stop stop-color="#1AF7A9"/>
<stop offset="1" stop-color="#08CDDA"/>
</linearGradient>
<linearGradient id="paint2_linear_3394_7428" x1="19.7186" y1="13.625" x2="16.2356" y2="13.6586" gradientUnits="userSpaceOnUse">
<stop stop-color="#1AF7A9"/>
<stop offset="1" stop-color="#08CDDA"/>
</linearGradient>
</defs>
</svg>
