<svg width="28" height="28" viewBox="0 0 28 28" fill="none" xmlns="http://www.w3.org/2000/svg">
<g clip-path="url(#clip0_501_7611)">
<path d="M13.9197 28.1245C21.686 28.1245 27.9819 21.8286 27.9819 14.0622C27.9819 6.29588 21.686 0 13.9197 0C6.1533 0 -0.142578 6.29588 -0.142578 14.0622C-0.142578 21.8286 6.1533 28.1245 13.9197 28.1245Z" fill="#1EAA7F"/>
<path d="M13.0127 24.309C10.4992 22.8588 8.05474 21.4485 5.55313 20.0052C6.13628 19.8024 6.22847 19.4008 6.22642 18.8989C6.213 15.6103 6.21598 12.3217 6.22396 9.03304C6.22509 8.55825 6.15431 8.15279 5.52783 7.96913C6.67057 7.31007 7.72635 6.70126 8.8782 6.03697C8.8782 6.42767 8.8782 6.70259 8.8782 6.97752C8.88097 10.9126 8.88097 14.8529 8.88097 18.7852C8.87667 19.3855 9.03462 19.6982 9.573 19.9991C10.0079 20.2424 10.0732 20.2648 10.4059 20.4516C10.4059 20.1816 10.4077 20.0171 10.4059 19.8262C10.4059 15.1271 10.4151 10.4946 10.4059 5.70759C10.4048 5.30972 10.4953 5.06699 10.8611 4.87759C11.5703 4.51048 12.2521 4.09025 13.0127 3.6532V24.309Z" fill="white"/>
<path fill-rule="evenodd" clip-rule="evenodd" d="M22.1201 20.0049L14.6605 24.3088V3.65295C14.887 3.78311 15.1065 3.91178 15.3219 4.03799C15.8296 4.33559 16.3141 4.61956 16.8121 4.87735C17.1779 5.06675 17.2685 5.30947 17.2673 5.70735C17.2612 8.89951 17.2632 12.0229 17.2653 15.1432C17.2663 16.7022 17.2673 18.2604 17.2673 19.8259C17.2662 19.9475 17.2665 20.0583 17.2669 20.1924C17.2671 20.269 17.2673 20.3532 17.2673 20.4513C17.4252 20.3627 17.5228 20.3111 17.6283 20.2553C17.7452 20.1936 17.8716 20.1267 18.1002 19.9989C18.6386 19.6979 18.7966 19.3853 18.7922 18.785V18.7809C18.7922 14.8499 18.7922 10.911 18.795 6.97727V6.03673L22.1454 7.96889C21.5189 8.15254 21.4481 8.55801 21.4493 9.03279C21.4572 12.3214 21.4602 15.6101 21.4468 18.8987C21.4447 19.4005 21.5369 19.8021 22.1201 20.0049ZM16.2551 5.70218L15.9624 5.10855L15.6699 5.70218L15.0155 5.79734L15.489 6.25941L15.3772 6.91181L15.9624 6.60376L16.5477 6.91181L16.436 6.25941L16.9094 5.79734L16.2551 5.70218Z" fill="white"/>
</g>
<defs>
<clipPath id="clip0_501_7611">
<rect width="28" height="28" rx="7.72727" fill="white"/>
</clipPath>
</defs>
</svg>
