<svg width="34" height="34" viewBox="0 0 34 34" fill="none" xmlns="http://www.w3.org/2000/svg">
<g clip-path="url(#clip0_454_24930)">
<path d="M16.9197 31.1245C24.686 31.1245 30.9819 24.8286 30.9819 17.0622C30.9819 9.29588 24.686 3 16.9197 3C9.1533 3 2.85742 9.29588 2.85742 17.0622C2.85742 24.8286 9.1533 31.1245 16.9197 31.1245Z" fill="#1EAA7F"/>
<path d="M16.0127 27.3089C13.4992 25.8587 11.0547 24.4484 8.55313 23.0051C9.13628 22.8022 9.22847 22.4007 9.22642 21.8988C9.213 18.6102 9.21598 15.3215 9.22396 12.0329C9.22509 11.5581 9.15431 11.1527 8.52783 10.969C9.67057 10.3099 10.7263 9.70114 11.8782 9.03685C11.8782 9.42755 11.8782 9.70247 11.8782 9.97739C11.881 13.9125 11.881 17.8528 11.881 21.7851C11.8767 22.3854 12.0346 22.6981 12.573 22.999C13.0079 23.2423 13.0732 23.2647 13.4059 23.4515C13.4059 23.1814 13.4077 23.017 13.4059 22.826C13.4059 18.127 13.4151 13.4945 13.4059 8.70747C13.4048 8.30959 13.4953 8.06687 13.8611 7.87747C14.5703 7.51036 15.2521 7.09012 16.0127 6.65308V27.3089Z" fill="white"/>
<path fill-rule="evenodd" clip-rule="evenodd" d="M25.1202 23.0048L17.6606 27.3087V6.65283C17.8871 6.78299 18.1067 6.91166 18.322 7.03787C18.8297 7.33547 19.3142 7.61944 19.8122 7.87722C20.178 8.06663 20.2686 8.30935 20.2675 8.70723C20.2613 11.8994 20.2634 15.0228 20.2654 18.1431C20.2664 19.7021 20.2675 21.2602 20.2675 22.8258C20.2663 22.9473 20.2666 23.0582 20.267 23.1923C20.2672 23.2689 20.2675 23.3531 20.2675 23.4512C20.4253 23.3626 20.523 23.311 20.6285 23.2552C20.7453 23.1935 20.8718 23.1266 21.1003 22.9988C21.6387 22.6978 21.7967 22.3851 21.7924 21.7848V21.7808C21.7924 17.8498 21.7924 13.9109 21.7951 9.97715V9.0366L25.1455 10.9688C24.519 11.1524 24.4482 11.5579 24.4494 12.0327C24.4574 15.3213 24.4603 18.6099 24.4469 21.8986C24.4449 22.4004 24.5371 22.802 25.1202 23.0048ZM19.2552 8.70206L18.9626 8.10842L18.67 8.70206L18.0157 8.79722L18.4891 9.25929L18.3774 9.91168L18.9626 9.60364L19.5479 9.91168L19.4361 9.25929L19.9095 8.79722L19.2552 8.70206Z" fill="white"/>
</g>
<defs>
<clipPath id="clip0_454_24930">
<rect x="3" y="3" width="28" height="28" rx="7.72727" fill="white"/>
</clipPath>
</defs>
</svg>
