<svg width="133" height="36" viewBox="0 0 133 36" fill="none" xmlns="http://www.w3.org/2000/svg">
<g clip-path="url(#clip0_8783_53829)">
<path d="M13.0537 36.0117C8.67015 33.4842 4.40698 31.0263 0.0441252 28.5108C1.06115 28.1573 1.22193 27.4574 1.21836 26.5827C1.19495 20.8512 1.20013 15.1196 1.21407 9.38797C1.21603 8.56049 1.09259 7.85383 0 7.53374C1.99296 6.3851 3.83425 5.32403 5.8431 4.16627C5.8431 4.8472 5.8431 5.32635 5.8431 5.8055C5.84793 12.6638 5.84793 19.5311 5.84793 26.3845C5.84042 27.4308 6.11589 27.9757 7.05485 28.5002C7.81337 28.9242 7.92717 28.9633 8.50741 29.2888C8.50741 28.8182 8.51062 28.5315 8.50741 28.1987C8.50741 20.009 8.52348 11.9353 8.50741 3.59222C8.50544 2.89878 8.66336 2.47575 9.3013 2.14565C10.5382 1.50583 11.7273 0.773429 13.0537 0.0117188V36.0117Z" fill="white"/>
<path fill-rule="evenodd" clip-rule="evenodd" d="M29.6463 28.5108L16.6367 36.0117V0.0117188C17.0317 0.238564 17.4146 0.462809 17.7901 0.682784C18.6756 1.20145 19.5206 1.69637 20.3891 2.14565C21.0271 2.47575 21.185 2.89878 21.183 3.59222C21.1723 9.15567 21.1759 14.5994 21.1795 20.0375C21.1813 22.7546 21.183 25.4702 21.183 28.1987C21.181 28.4106 21.1816 28.6037 21.1822 28.8375C21.1826 28.971 21.183 29.1177 21.183 29.2888C21.4584 29.1343 21.6287 29.0444 21.8126 28.9472C22.0164 28.8395 22.237 28.723 22.6356 28.5002C23.5746 27.9757 23.85 27.4308 23.8425 26.3845V26.3764C23.8425 19.5257 23.8425 12.661 23.8473 5.8055V4.16627L29.6904 7.53374C28.5979 7.85383 28.4744 8.56049 28.4764 9.38797C28.4903 15.1196 28.4955 20.8512 28.4721 26.5827C28.4685 27.4574 28.6293 28.1573 29.6463 28.5108ZM19.4181 3.58345L18.9077 2.54883L18.3975 3.58345L17.2563 3.7493L18.082 4.55462L17.8871 5.69164L18.9077 5.15476L19.9285 5.69164L19.7336 4.55462L20.5593 3.7493L19.4181 3.58345Z" fill="white"/>
</g>
<path d="M52.9743 22.3986C52.9743 24.5111 52.2686 26.1371 50.857 27.2767C49.5569 28.3329 47.8111 28.861 45.6195 28.861C43.3815 28.861 41.5799 28.3051 40.2148 27.1933C38.7383 26.0074 38 24.3304 38 22.1623V21.4814H43.3629C43.3629 22.2596 43.5347 22.9128 43.8783 23.4409C44.2683 24.0524 44.8302 24.3582 45.5638 24.3582C46.9289 24.3582 47.6114 23.6865 47.6114 22.343C47.6114 21.7315 47.3746 21.2358 46.901 20.856C46.7153 20.7077 46.4739 20.5595 46.1767 20.4112L45.7727 20.2167L43.4743 19.2299C42.7129 18.9149 42.0582 18.5953 41.5103 18.271C40.8602 17.8911 40.3123 17.4788 39.8666 17.0341C38.8358 15.9872 38.3204 14.7086 38.3204 13.1984C38.3204 11.3361 39.1004 9.81196 40.6606 8.62603C42.0907 7.54201 43.7715 7 45.7031 7C46.7896 7 47.8297 7.19457 48.8233 7.5837C49.9005 8.0099 50.7642 8.61213 51.4142 9.3904C52.2871 10.4652 52.7515 11.8503 52.8072 13.5458H47.4721C47.2678 12.1746 46.6224 11.4889 45.5359 11.4889C44.3008 11.4889 43.6833 12.0402 43.6833 13.1428C43.6833 13.5319 43.7483 13.8284 43.8783 14.0322C44.0919 14.3936 44.7373 14.8383 45.8145 15.3664L48.0433 16.367C48.8233 16.7191 49.4734 17.0573 49.9934 17.3816C50.6249 17.7707 51.1449 18.183 51.5535 18.6184C52.5007 19.6191 52.9743 20.8791 52.9743 22.3986Z" fill="white"/>
<path d="M71.6679 20.5502C71.6679 22.9591 70.8507 24.9604 69.2163 26.554C67.5912 28.1476 65.5621 28.9444 63.129 28.9444C60.696 28.9444 58.6716 28.1476 57.0557 26.554C55.4213 24.9604 54.6041 22.9591 54.6041 20.5502C54.6041 18.132 55.4213 16.1261 57.0557 14.5325C58.6716 12.9389 60.696 12.1421 63.129 12.1421C65.5621 12.1421 67.5912 12.9389 69.2163 14.5325C70.8507 16.1261 71.6679 18.132 71.6679 20.5502ZM66.9318 20.5502C66.9318 19.4569 66.5743 18.5258 65.8592 17.7568C65.1256 16.96 64.2155 16.5616 63.129 16.5616C62.0518 16.5616 61.1464 16.96 60.4128 17.7568C59.6977 18.5258 59.3402 19.4569 59.3402 20.5502C59.3402 21.6342 59.6977 22.5654 60.4128 23.3437C61.1464 24.1312 62.0518 24.525 63.129 24.525C64.2155 24.525 65.1256 24.1312 65.8592 23.3437C66.5743 22.5654 66.9318 21.6342 66.9318 20.5502Z" fill="white"/>
<path d="M74.3424 28.458V7.38913H79.0784V28.458H74.3424Z" fill="white"/>
<path d="M94.401 28.458V26.7486H94.3453C93.946 27.5083 93.282 28.0874 92.3534 28.4858C91.5547 28.8286 90.6772 29 89.7207 29C87.3341 29 85.3978 28.18 83.912 26.5401C82.4819 24.9465 81.7669 22.9499 81.7669 20.5502C81.7669 18.1876 82.4958 16.2049 83.9538 14.602C85.4675 12.9436 87.3898 12.1143 89.7207 12.1143C90.6679 12.1143 91.5408 12.2904 92.3394 12.6425C93.2309 13.0316 93.8996 13.5968 94.3453 14.338H94.401V12.6563H99.1371V28.458H94.401ZM94.401 20.5502C94.401 19.3921 94.0249 18.4331 93.2727 17.6734C92.5205 16.9137 91.5687 16.5338 90.4172 16.5338C89.2749 16.5338 88.3324 16.9322 87.5894 17.729C86.8651 18.498 86.5029 19.4569 86.5029 20.6058C86.5029 21.7084 86.879 22.6441 87.6312 23.4131C88.402 24.1914 89.3399 24.5805 90.445 24.5805C91.5872 24.5805 92.5345 24.196 93.2867 23.427C94.0296 22.658 94.401 21.6991 94.401 20.5502Z" fill="white"/>
<path d="M111.033 16.8673C109.816 16.9044 108.934 17.0897 108.386 17.4232C107.662 17.868 107.3 18.6509 107.3 19.772V28.458H102.564V12.6563H107.007V14.338H107.077C107.829 12.8555 109.148 12.1143 111.033 12.1143V16.8673Z" fill="white"/>
<path d="M112.955 10.9886V7.38913H117.691V10.9886H112.955ZM112.955 28.458V12.6563H117.691V28.458H112.955Z" fill="white"/>
<path d="M133 23.6216C133 25.2986 132.327 26.6374 130.98 27.638C129.764 28.546 128.287 29 126.551 29C124.823 29 123.379 28.5599 122.218 27.6797C120.983 26.7439 120.278 25.4376 120.101 23.7606H124.809C124.949 24.7334 125.548 25.2198 126.606 25.2198C127.015 25.2198 127.382 25.1179 127.707 24.9141C128.078 24.6825 128.264 24.3721 128.264 23.9829C128.264 23.4919 128.013 23.0889 127.512 22.7738L126.815 22.4403L124.071 21.4536C122.966 21.0552 122.102 20.5595 121.48 19.9665C120.691 19.2253 120.296 18.3451 120.296 17.326C120.296 15.7602 120.937 14.4816 122.218 13.4902C123.398 12.573 124.805 12.1143 126.439 12.1143C128.101 12.1143 129.471 12.5266 130.548 13.3512C131.709 14.2314 132.364 15.4822 132.512 17.1036H127.86C127.832 16.3068 127.34 15.9084 126.383 15.9084C125.483 15.9084 125.032 16.2605 125.032 16.9646C125.032 17.4927 125.45 17.9236 126.286 18.2571C126.565 18.3776 126.987 18.5212 127.554 18.6879C127.6 18.6972 127.66 18.7111 127.735 18.7296L129.016 19.1327C129.583 19.318 130.07 19.5125 130.479 19.7164C130.98 19.9665 131.403 20.2537 131.746 20.578C132.582 21.347 133 22.3615 133 23.6216Z" fill="white"/>
<defs>
<clipPath id="clip0_8783_53829">
<rect width="30" height="36" fill="white"/>
</clipPath>
</defs>
</svg>
