<svg width="211" height="24" viewBox="0 0 211 24" fill="none" xmlns="http://www.w3.org/2000/svg">
<g clip-path="url(#clip0_8621_41723)">
<path d="M8.70249 24.0078C5.7801 22.3228 2.93799 20.6842 0.0294168 19.0072C0.707432 18.7715 0.814619 18.3049 0.812237 17.7218C0.796635 13.9008 0.800089 10.0797 0.809378 6.25865C0.810689 5.70699 0.728393 5.23589 0 5.02249C1.32864 4.25673 2.55616 3.54935 3.8954 2.77752C3.8954 3.23147 3.8954 3.5509 3.8954 3.87034C3.89862 8.4425 3.89862 13.0207 3.89862 17.5897C3.89362 18.2872 4.07726 18.6505 4.70323 19.0002C5.20891 19.2828 5.28478 19.3089 5.6716 19.5258C5.6716 19.2121 5.67375 19.021 5.6716 18.7992C5.6716 13.3393 5.68232 7.95686 5.6716 2.39481C5.67029 1.93252 5.77557 1.6505 6.20087 1.43043C7.02549 1.00389 7.8182 0.515619 8.70249 0.0078125V24.0078Z" fill="white"/>
<path fill-rule="evenodd" clip-rule="evenodd" d="M19.7639 19.0072L11.0908 24.0078V0.0078125C11.3542 0.159043 11.6094 0.30854 11.8598 0.455189C12.4501 0.800967 13.0134 1.13092 13.5924 1.43043C14.0177 1.6505 14.123 1.93252 14.1217 2.39481C14.1146 6.10378 14.1169 9.73291 14.1193 13.3584C14.1205 15.1697 14.1217 16.9801 14.1217 18.7992C14.1203 18.9404 14.1207 19.0692 14.1212 19.225C14.1214 19.314 14.1217 19.4118 14.1217 19.5258C14.3052 19.4229 14.4188 19.3629 14.5414 19.2981C14.6773 19.2264 14.8243 19.1487 15.0901 19.0002C15.716 18.6505 15.8997 18.2872 15.8947 17.5897V17.5856C15.8947 13.018 15.8947 8.44115 15.8979 3.87034V2.77752L19.7933 5.02249C19.0649 5.23589 18.9826 5.70699 18.9839 6.25865C18.9932 10.0797 18.9967 13.9008 18.9811 17.7218C18.9787 18.3049 19.0859 18.7715 19.7639 19.0072ZM12.9451 2.38896L12.6048 1.69922L12.2647 2.38896L11.5039 2.49953L12.0544 3.03641L11.9244 3.79443L12.6048 3.43651L13.2853 3.79443L13.1554 3.03641L13.7059 2.49953L12.9451 2.38896Z" fill="white"/>
</g>
<path d="M40.2236 15.5989C40.2236 17.3272 39.6475 18.6576 38.4953 19.59C37.434 20.4542 36.0088 20.8863 34.2198 20.8863C32.3929 20.8863 30.9223 20.4315 29.808 19.5218C28.6027 18.5515 28 17.1794 28 15.4056V14.8484H32.3778C32.3778 15.4852 32.518 16.0196 32.7985 16.4517C33.1169 16.952 33.5755 17.2021 34.1744 17.2021C35.2887 17.2021 35.8459 16.6526 35.8459 15.5534C35.8459 15.0531 35.6526 14.6475 35.266 14.3367C35.1143 14.2154 34.9172 14.0941 34.6747 13.9728L34.3449 13.8136L32.4687 13.0063C31.8471 12.7486 31.3127 12.487 30.8654 12.2217C30.3348 11.9109 29.8876 11.5736 29.5237 11.2097C28.6822 10.3531 28.2615 9.30701 28.2615 8.07138C28.2615 6.54769 28.8983 5.30069 30.1718 4.33039C31.3392 3.44346 32.7113 3 34.2881 3C35.175 3 36.024 3.15919 36.8351 3.47757C37.7145 3.82628 38.4195 4.31901 38.9501 4.95578C39.6627 5.83512 40.0417 6.96841 40.0872 8.35565H35.7322C35.5654 7.23373 35.0385 6.67277 34.1516 6.67277C33.1434 6.67277 32.6393 7.12382 32.6393 8.0259C32.6393 8.34428 32.6924 8.58686 32.7985 8.75363C32.9728 9.04927 33.4997 9.41314 34.379 9.84523L36.1984 10.6639C36.8351 10.952 37.3658 11.2287 37.7903 11.494C38.3057 11.8124 38.7303 12.1497 39.0638 12.506C39.837 13.3247 40.2236 14.3557 40.2236 15.5989Z" fill="white"/>
<path d="M55.4833 14.0865C55.4833 16.0575 54.8162 17.6949 53.482 18.9987C52.1554 20.3026 50.4991 20.9545 48.5129 20.9545C46.5268 20.9545 44.8743 20.3026 43.5553 18.9987C42.2211 17.6949 41.554 16.0575 41.554 14.0865C41.554 12.108 42.2211 10.4668 43.5553 9.16298C44.8743 7.85913 46.5268 7.2072 48.5129 7.2072C50.4991 7.2072 52.1554 7.85913 53.482 9.16298C54.8162 10.4668 55.4833 12.108 55.4833 14.0865ZM51.6172 14.0865C51.6172 13.192 51.3253 12.4302 50.7416 11.801C50.1428 11.1491 49.3999 10.8231 48.5129 10.8231C47.6336 10.8231 46.8945 11.1491 46.2956 11.801C45.7119 12.4302 45.4201 13.192 45.4201 14.0865C45.4201 14.9735 45.7119 15.7353 46.2956 16.3721C46.8945 17.0164 47.6336 17.3386 48.5129 17.3386C49.3999 17.3386 50.1428 17.0164 50.7416 16.3721C51.3253 15.7353 51.6172 14.9735 51.6172 14.0865Z" fill="white"/>
<path d="M57.6665 20.5565V3.31838H61.5325V20.5565H57.6665Z" fill="white"/>
<path d="M74.0404 20.5565V19.1579H73.9949C73.669 19.7795 73.127 20.2533 72.3689 20.5793C71.717 20.8598 71.0006 21 70.2198 21C68.2716 21 66.6911 20.3291 65.4782 18.9874C64.3108 17.6835 63.7271 16.0499 63.7271 14.0865C63.7271 12.1535 64.3222 10.5313 65.5123 9.21984C66.7479 7.86292 68.3171 7.18446 70.2198 7.18446C70.9931 7.18446 71.7056 7.32849 72.3575 7.61655C73.0853 7.93493 73.6311 8.39735 73.9949 9.00379H74.0404V7.62792H77.9065V20.5565H74.0404ZM74.0404 14.0865C74.0404 13.139 73.7334 12.3544 73.1194 11.7328C72.5054 11.1112 71.7284 10.8004 70.7884 10.8004C69.856 10.8004 69.0865 11.1263 68.4801 11.7783C67.8888 12.4075 67.5932 13.192 67.5932 14.132C67.5932 15.0341 67.9002 15.7997 68.5142 16.4289C69.1434 17.0657 69.909 17.3841 70.8111 17.3841C71.7435 17.3841 72.5167 17.0695 73.1308 16.4403C73.7372 15.8111 74.0404 15.0265 74.0404 14.0865Z" fill="white"/>
<path d="M87.6172 11.0733C86.6241 11.1036 85.904 11.2552 85.4567 11.5281C84.8654 11.892 84.5698 12.5325 84.5698 13.4498V20.5565H80.7037V7.62792H84.331V9.00379H84.3879C85.0019 7.7909 86.0783 7.18446 87.6172 7.18446V11.0733Z" fill="white"/>
<path d="M89.1864 6.26342V3.31838H93.0524V6.26342H89.1864ZM89.1864 20.5565V7.62792H93.0524V20.5565H89.1864Z" fill="white"/>
<path d="M105.549 16.5995C105.549 17.9716 104.999 19.067 103.9 19.8857C102.907 20.6286 101.702 21 100.284 21C98.8743 21 97.6955 20.6399 96.7479 19.9198C95.7397 19.1541 95.1636 18.0853 95.0196 16.7132H98.8629C98.9766 17.5092 99.4656 17.9071 100.33 17.9071C100.663 17.9071 100.963 17.8238 101.228 17.657C101.531 17.4675 101.683 17.2135 101.683 16.8951C101.683 16.4934 101.478 16.1636 101.069 15.9059L100.5 15.633L98.2603 14.8256C97.3582 14.4997 96.6532 14.0941 96.1453 13.609C95.5009 13.0025 95.1788 12.2824 95.1788 11.4485C95.1788 10.1674 95.7018 9.12129 96.7479 8.31017C97.7107 7.5597 98.8591 7.18446 100.193 7.18446C101.55 7.18446 102.668 7.52179 103.548 8.19646C104.495 8.91661 105.03 9.93999 105.151 11.2666H101.353C101.33 10.6147 100.929 10.2887 100.148 10.2887C99.4125 10.2887 99.0449 10.5768 99.0449 11.1529C99.0449 11.585 99.386 11.9375 100.068 12.2104C100.296 12.3089 100.641 12.4264 101.103 12.5629C101.141 12.5704 101.19 12.5818 101.251 12.597L102.297 12.9267C102.759 13.0783 103.157 13.2375 103.491 13.4043C103.9 13.609 104.245 13.844 104.526 14.1093C105.208 14.7385 105.549 15.5685 105.549 16.5995Z" fill="white"/>
<path d="M128.961 20.5565L129.098 7.65066L129.052 7.60518L125.38 20.5565H122.469L118.785 7.60518L118.739 7.65066L118.876 20.5565H114.828V3.31838H120.49L123.913 14.6665H123.958L127.335 3.31838H133.009V20.5565H128.961Z" fill="white"/>
<path d="M145.677 20.5565V19.1579H145.631C145.305 19.7795 144.763 20.2533 144.005 20.5793C143.353 20.8598 142.637 21 141.856 21C139.908 21 138.327 20.3291 137.114 18.9874C135.947 17.6835 135.363 16.0499 135.363 14.0865C135.363 12.1535 135.958 10.5313 137.148 9.21984C138.384 7.86292 139.953 7.18446 141.856 7.18446C142.629 7.18446 143.342 7.32849 143.994 7.61655C144.721 7.93493 145.267 8.39735 145.631 9.00379H145.677V7.62792H149.543V20.5565H145.677ZM145.677 14.0865C145.677 13.139 145.37 12.3544 144.756 11.7328C144.142 11.1112 143.364 10.8004 142.425 10.8004C141.492 10.8004 140.723 11.1263 140.116 11.7783C139.525 12.4075 139.229 13.192 139.229 14.132C139.229 15.0341 139.536 15.7997 140.15 16.4289C140.78 17.0657 141.545 17.3841 142.447 17.3841C143.38 17.3841 144.153 17.0695 144.767 16.4403C145.373 15.8111 145.677 15.0265 145.677 14.0865Z" fill="white"/>
<path d="M152.363 6.26342V3.31838H156.229V6.26342H152.363ZM152.363 20.5565V7.62792H156.229V20.5565H152.363Z" fill="white"/>
<path d="M167.133 20.5565V13.4953C167.133 12.6538 167.012 12.0284 166.769 11.6191C166.459 11.0884 165.905 10.8231 165.109 10.8231C164.268 10.8231 163.673 11.0809 163.324 11.5963C163.036 12.0208 162.892 12.6652 162.892 13.5294V20.5565H159.026V7.62792H162.63V9.00379H162.687C163.43 7.7909 164.601 7.18446 166.201 7.18446C167.512 7.18446 168.615 7.5597 169.51 8.31017C170.071 8.78016 170.473 9.41314 170.715 10.2091C170.905 10.8307 170.999 11.585 170.999 12.4719V20.5565H167.133Z" fill="white"/>
<path d="M181.847 20.5565V13.4953C181.847 12.6538 181.726 12.0284 181.483 11.6191C181.172 11.0884 180.619 10.8231 179.823 10.8231C178.982 10.8231 178.387 11.0809 178.038 11.5963C177.75 12.0208 177.606 12.6652 177.606 13.5294V20.5565H173.74V7.62792H177.344V9.00379H177.401C178.144 7.7909 179.315 7.18446 180.915 7.18446C182.226 7.18446 183.329 7.5597 184.224 8.31017C184.785 8.78016 185.186 9.41314 185.429 10.2091C185.618 10.8307 185.713 11.585 185.713 12.4719V20.5565H181.847Z" fill="white"/>
<path d="M201.359 14.2457C201.359 14.6172 201.329 14.9583 201.268 15.2691H191.581C191.823 16.8989 192.831 17.7138 194.605 17.7138C195.53 17.7138 196.315 17.3121 196.959 16.5085H200.916C200.34 17.8503 199.514 18.9191 198.437 19.7151C197.292 20.5565 196.015 20.9773 194.605 20.9773C192.718 20.9773 191.107 20.3064 189.773 18.9646C188.431 17.6304 187.76 16.0196 187.76 14.132C187.76 12.2369 188.416 10.6109 189.727 9.25395C191.054 7.87429 192.657 7.18446 194.537 7.18446C196.493 7.18446 198.126 7.87429 199.438 9.25395C200.719 10.6109 201.359 12.2748 201.359 14.2457ZM197.493 12.6652C197.175 11.187 196.197 10.4479 194.56 10.4479C192.922 10.4479 191.944 11.187 191.626 12.6652H197.493Z" fill="white"/>
<path d="M208.148 10.5616V20.5565H204.282V10.5616H202.371V7.62792H204.282V3.31838H208.148V7.62792H210.013V10.5616H208.148Z" fill="white"/>
<defs>
<clipPath id="clip0_8621_41723">
<rect width="20" height="24" fill="white"/>
</clipPath>
</defs>
</svg>
