<svg width="32" height="32" viewBox="0 0 32 32" fill="none" xmlns="http://www.w3.org/2000/svg">
<g clip-path="url(#clip0_8621_41778)">
<path d="M14.6033 32.0078C10.7068 29.7612 6.91732 27.5763 3.03922 25.3403C3.94324 25.0261 4.08616 24.404 4.08298 23.6265C4.06218 18.5318 4.06679 13.437 4.07917 8.34226C4.08092 7.60672 3.97119 6.97858 3 6.69405C4.77152 5.67304 6.40822 4.72987 8.19387 3.70075C8.19387 4.30602 8.19387 4.73193 8.19387 5.15784C8.19816 11.2541 8.19816 17.3584 8.19816 23.4503C8.19149 24.3803 8.43635 24.8647 9.27098 25.3309C9.94522 25.7078 10.0464 25.7426 10.5621 26.0319C10.5621 25.6136 10.565 25.3587 10.5621 25.0629C10.5621 17.7832 10.5764 10.6065 10.5621 3.19048C10.5604 2.57409 10.7008 2.19806 11.2678 1.90464C12.3673 1.33591 13.4243 0.684888 14.6033 0.0078125V32.0078Z" fill="white"/>
<path fill-rule="evenodd" clip-rule="evenodd" d="M29.5641 25.3325L18 32V0C18.3511 0.20164 18.6914 0.400969 19.0253 0.596502C19.8124 1.05754 20.5634 1.49747 21.3355 1.89683C21.9025 2.19025 22.0429 2.56628 22.0412 3.18267C22.0316 8.12796 22.0348 12.9668 22.038 17.8007C22.0396 20.2159 22.0412 22.6298 22.0412 25.0551C22.0394 25.2434 22.0399 25.4151 22.0405 25.6229C22.0408 25.7416 22.0412 25.872 22.0412 26.024C22.2859 25.8868 22.4373 25.8068 22.6008 25.7204C22.782 25.6247 22.978 25.5212 23.3323 25.3231C24.167 24.8569 24.4118 24.3725 24.4052 23.4425V23.4344C24.4052 17.3451 24.4052 11.2435 24.4094 5.15003V3.69294L29.6033 6.68624C28.6321 6.97076 28.5224 7.59891 28.5241 8.33445C28.5365 13.4292 28.5411 18.5239 28.5203 23.6187C28.5172 24.3962 28.6601 25.0183 29.5641 25.3325ZM20.4724 3.17552L20.0187 2.25586L19.5652 3.17552L18.5508 3.32294L19.2847 4.03878L19.1115 5.04947L20.0187 4.57225L20.926 5.04947L20.7528 4.03878L21.4867 3.32294L20.4724 3.17552Z" fill="white"/>
</g>
<defs>
<clipPath id="clip0_8621_41778">
<rect width="32" height="32" fill="white"/>
</clipPath>
</defs>
</svg>
